<mxfile host="app.diagrams.net" agent="Mozilla/5.0 (Macintosh; Intel Mac OS X 10_15_7) AppleWebKit/537.36 (KHTML, like Gecko) Chrome/131.0.0.0 Safari/537.36" version="26.0.4">
  <diagram name="Page-1" id="14XLXcr4h7Q1yf35ICow">
    <mxGraphModel dx="1033" dy="779" grid="1" gridSize="10" guides="1" tooltips="1" connect="1" arrows="1" fold="1" page="1" pageScale="1" pageWidth="850" pageHeight="1100" math="0" shadow="0">
      <root>
        <mxCell id="0" />
        <mxCell id="1" parent="0" />
        <mxCell id="a35DyW928IvcFfC3iXfb-24" style="edgeStyle=orthogonalEdgeStyle;rounded=0;orthogonalLoop=1;jettySize=auto;html=1;entryX=0;entryY=0.5;entryDx=0;entryDy=0;" edge="1" parent="1" source="a35DyW928IvcFfC3iXfb-1" target="a35DyW928IvcFfC3iXfb-4">
          <mxGeometry relative="1" as="geometry" />
        </mxCell>
        <mxCell id="a35DyW928IvcFfC3iXfb-1" value="&lt;b&gt;START&lt;/b&gt;" style="ellipse;whiteSpace=wrap;html=1;aspect=fixed;fillColor=#f5f5f5;fontColor=#333333;strokeColor=#666666;" vertex="1" parent="1">
          <mxGeometry x="50" y="130" width="60" height="60" as="geometry" />
        </mxCell>
        <mxCell id="a35DyW928IvcFfC3iXfb-2" value="&lt;b&gt;FINAL&lt;br&gt;REPORT&lt;/b&gt;" style="ellipse;whiteSpace=wrap;html=1;aspect=fixed;fillColor=#f5f5f5;fontColor=#333333;strokeColor=#666666;" vertex="1" parent="1">
          <mxGeometry x="760" y="130" width="60" height="60" as="geometry" />
        </mxCell>
        <mxCell id="a35DyW928IvcFfC3iXfb-21" style="edgeStyle=orthogonalEdgeStyle;rounded=1;orthogonalLoop=1;jettySize=auto;html=1;exitX=0.5;exitY=1;exitDx=0;exitDy=0;curved=0;" edge="1" parent="1" source="a35DyW928IvcFfC3iXfb-4" target="a35DyW928IvcFfC3iXfb-20">
          <mxGeometry relative="1" as="geometry" />
        </mxCell>
        <mxCell id="a35DyW928IvcFfC3iXfb-34" style="edgeStyle=orthogonalEdgeStyle;rounded=0;orthogonalLoop=1;jettySize=auto;html=1;exitX=1;exitY=0.5;exitDx=0;exitDy=0;entryX=0;entryY=0.5;entryDx=0;entryDy=0;" edge="1" parent="1" source="a35DyW928IvcFfC3iXfb-4" target="a35DyW928IvcFfC3iXfb-33">
          <mxGeometry relative="1" as="geometry" />
        </mxCell>
        <mxCell id="a35DyW928IvcFfC3iXfb-4" value="Orchestrator&lt;br&gt;Agent" style="ellipse;whiteSpace=wrap;html=1;strokeWidth=2;" vertex="1" parent="1">
          <mxGeometry x="280" y="120" width="120" height="80" as="geometry" />
        </mxCell>
        <mxCell id="a35DyW928IvcFfC3iXfb-16" style="edgeStyle=orthogonalEdgeStyle;rounded=0;orthogonalLoop=1;jettySize=auto;html=1;exitX=1;exitY=0.5;exitDx=0;exitDy=0;entryX=0;entryY=0.5;entryDx=0;entryDy=0;" edge="1" parent="1" source="a35DyW928IvcFfC3iXfb-5" target="a35DyW928IvcFfC3iXfb-15">
          <mxGeometry relative="1" as="geometry" />
        </mxCell>
        <mxCell id="a35DyW928IvcFfC3iXfb-5" value="Code Complexity Scoring&lt;br&gt;Agent(s)" style="ellipse;whiteSpace=wrap;html=1;strokeWidth=2;" vertex="1" parent="1">
          <mxGeometry x="110" y="330" width="120" height="80" as="geometry" />
        </mxCell>
        <mxCell id="a35DyW928IvcFfC3iXfb-30" style="edgeStyle=orthogonalEdgeStyle;rounded=1;orthogonalLoop=1;jettySize=auto;html=1;exitX=0.5;exitY=0;exitDx=0;exitDy=0;curved=0;" edge="1" parent="1" source="a35DyW928IvcFfC3iXfb-6">
          <mxGeometry relative="1" as="geometry">
            <mxPoint x="340" y="200" as="targetPoint" />
            <Array as="points">
              <mxPoint x="540" y="220" />
              <mxPoint x="340" y="220" />
            </Array>
          </mxGeometry>
        </mxCell>
        <mxCell id="a35DyW928IvcFfC3iXfb-6" value="Code Review&lt;br&gt;Agent(s)" style="ellipse;whiteSpace=wrap;html=1;strokeWidth=2;" vertex="1" parent="1">
          <mxGeometry x="480" y="330" width="120" height="80" as="geometry" />
        </mxCell>
        <mxCell id="a35DyW928IvcFfC3iXfb-42" style="edgeStyle=orthogonalEdgeStyle;rounded=0;orthogonalLoop=1;jettySize=auto;html=1;exitX=1;exitY=0.5;exitDx=0;exitDy=0;entryX=0;entryY=0.5;entryDx=0;entryDy=0;" edge="1" parent="1" source="a35DyW928IvcFfC3iXfb-7" target="a35DyW928IvcFfC3iXfb-2">
          <mxGeometry relative="1" as="geometry" />
        </mxCell>
        <mxCell id="a35DyW928IvcFfC3iXfb-7" value="Summary Report Agent" style="ellipse;whiteSpace=wrap;html=1;strokeWidth=2;" vertex="1" parent="1">
          <mxGeometry x="600" y="120" width="120" height="80" as="geometry" />
        </mxCell>
        <mxCell id="a35DyW928IvcFfC3iXfb-17" style="edgeStyle=orthogonalEdgeStyle;rounded=0;orthogonalLoop=1;jettySize=auto;html=1;exitX=1;exitY=0.5;exitDx=0;exitDy=0;entryX=0;entryY=0.5;entryDx=0;entryDy=0;" edge="1" parent="1" source="a35DyW928IvcFfC3iXfb-15" target="a35DyW928IvcFfC3iXfb-6">
          <mxGeometry relative="1" as="geometry" />
        </mxCell>
        <mxCell id="a35DyW928IvcFfC3iXfb-29" style="edgeStyle=orthogonalEdgeStyle;rounded=1;orthogonalLoop=1;jettySize=auto;html=1;curved=0;entryX=0.5;entryY=1;entryDx=0;entryDy=0;entryPerimeter=0;" edge="1" parent="1" source="a35DyW928IvcFfC3iXfb-15" target="a35DyW928IvcFfC3iXfb-4">
          <mxGeometry relative="1" as="geometry">
            <mxPoint x="340" y="210" as="targetPoint" />
          </mxGeometry>
        </mxCell>
        <mxCell id="a35DyW928IvcFfC3iXfb-15" value="Too&lt;br&gt;complex&lt;br&gt;file?" style="rhombus;whiteSpace=wrap;html=1;" vertex="1" parent="1">
          <mxGeometry x="295" y="325" width="90" height="90" as="geometry" />
        </mxCell>
        <mxCell id="a35DyW928IvcFfC3iXfb-23" style="edgeStyle=orthogonalEdgeStyle;rounded=0;orthogonalLoop=1;jettySize=auto;html=1;entryX=0.5;entryY=0;entryDx=0;entryDy=0;" edge="1" parent="1" source="a35DyW928IvcFfC3iXfb-20" target="a35DyW928IvcFfC3iXfb-5">
          <mxGeometry relative="1" as="geometry" />
        </mxCell>
        <mxCell id="a35DyW928IvcFfC3iXfb-20" value="Static Code Analysis" style="shape=process;whiteSpace=wrap;html=1;backgroundOutline=1;" vertex="1" parent="1">
          <mxGeometry x="110" y="240" width="120" height="60" as="geometry" />
        </mxCell>
        <mxCell id="a35DyW928IvcFfC3iXfb-25" value="Yes. &lt;br&gt;Review code" style="text;html=1;align=left;verticalAlign=middle;whiteSpace=wrap;rounded=0;" vertex="1" parent="1">
          <mxGeometry x="385" y="340" width="90" height="30" as="geometry" />
        </mxCell>
        <mxCell id="a35DyW928IvcFfC3iXfb-26" value="No.&lt;br&gt;Skip code review.&lt;br&gt;File review complete." style="text;html=1;align=left;verticalAlign=middle;whiteSpace=wrap;rounded=0;" vertex="1" parent="1">
          <mxGeometry x="340" y="270" width="120" height="30" as="geometry" />
        </mxCell>
        <mxCell id="a35DyW928IvcFfC3iXfb-35" style="edgeStyle=orthogonalEdgeStyle;rounded=1;orthogonalLoop=1;jettySize=auto;html=1;exitX=0.5;exitY=0;exitDx=0;exitDy=0;entryX=0.5;entryY=0;entryDx=0;entryDy=0;curved=0;" edge="1" parent="1" source="a35DyW928IvcFfC3iXfb-33" target="a35DyW928IvcFfC3iXfb-4">
          <mxGeometry relative="1" as="geometry" />
        </mxCell>
        <mxCell id="a35DyW928IvcFfC3iXfb-36" style="edgeStyle=orthogonalEdgeStyle;rounded=0;orthogonalLoop=1;jettySize=auto;html=1;exitX=1;exitY=0.5;exitDx=0;exitDy=0;entryX=0;entryY=0.5;entryDx=0;entryDy=0;" edge="1" parent="1" source="a35DyW928IvcFfC3iXfb-33" target="a35DyW928IvcFfC3iXfb-7">
          <mxGeometry relative="1" as="geometry" />
        </mxCell>
        <mxCell id="a35DyW928IvcFfC3iXfb-33" value="All files&lt;br&gt;done?" style="rhombus;whiteSpace=wrap;html=1;" vertex="1" parent="1">
          <mxGeometry x="460" y="120" width="80" height="80" as="geometry" />
        </mxCell>
        <mxCell id="a35DyW928IvcFfC3iXfb-39" value="No&lt;div&gt;Keep waiting&lt;/div&gt;" style="text;html=1;align=left;verticalAlign=middle;whiteSpace=wrap;rounded=0;" vertex="1" parent="1">
          <mxGeometry x="401" y="86" width="90" height="30" as="geometry" />
        </mxCell>
        <mxCell id="a35DyW928IvcFfC3iXfb-41" value="Yes" style="text;html=1;align=left;verticalAlign=middle;whiteSpace=wrap;rounded=0;" vertex="1" parent="1">
          <mxGeometry x="550" y="137" width="30" height="30" as="geometry" />
        </mxCell>
        <mxCell id="a35DyW928IvcFfC3iXfb-43" value="File review complete." style="text;html=1;align=left;verticalAlign=middle;whiteSpace=wrap;rounded=0;" vertex="1" parent="1">
          <mxGeometry x="540" y="272" width="120" height="30" as="geometry" />
        </mxCell>
        <mxCell id="a35DyW928IvcFfC3iXfb-44" value="Wait" style="text;html=1;align=left;verticalAlign=middle;whiteSpace=wrap;rounded=0;" vertex="1" parent="1">
          <mxGeometry x="410" y="137" width="30" height="30" as="geometry" />
        </mxCell>
        <mxCell id="a35DyW928IvcFfC3iXfb-45" value="&quot;Review the codebase &lt;br&gt;in this folder&quot;" style="text;html=1;align=left;verticalAlign=middle;whiteSpace=wrap;rounded=0;" vertex="1" parent="1">
          <mxGeometry x="120" y="130" width="150" height="30" as="geometry" />
        </mxCell>
        <mxCell id="a35DyW928IvcFfC3iXfb-46" value="&lt;i&gt;Per file:&lt;/i&gt; Rate complexity" style="text;html=1;align=center;verticalAlign=middle;whiteSpace=wrap;rounded=0;" vertex="1" parent="1">
          <mxGeometry x="163" y="195" width="155" height="30" as="geometry" />
        </mxCell>
      </root>
    </mxGraphModel>
  </diagram>
</mxfile>
